<?xml version="1.0" encoding="iso-8859-1"?>
<!-- Generator: Adobe Illustrator 19.0.0, SVG Export Plug-In . SVG Version: 6.00 Build 0)  -->
<svg version="1.1" id="Capa_1" xmlns="http://www.w3.org/2000/svg" xmlns:xlink="http://www.w3.org/1999/xlink" x="0px" y="0px"
	 viewBox="0 0 512 512" style="enable-background:new 0 0 512 512;" xml:space="preserve">
<path style="fill:#D9F0FF;" d="M457.189,462.769H54.811c-24.833,0-44.964-20.131-44.964-44.964v-14.112h492.308v14.112
	C502.154,442.638,482.022,462.769,457.189,462.769z"/>
<path style="fill:#FF5A5A;" d="M413.538,147.692v29.538c0,27.189-22.042,49.231-49.231,49.231l0,0
	c-11.783,0-22.594-4.144-31.069-11.047c-2.833,6.499-9.307,11.047-16.85,11.047h-11.159c16.314,0,29.538,13.224,29.538,29.538
	s-13.224,29.538-29.538,29.538h11.159c10.15,0,18.38,8.228,18.38,18.38c0,47.958-33.837,88.006-78.938,97.589l0.168,2.185h216.615
	l19.692-256H413.538z"/>
<circle style="fill:#FFE088;" cx="364.308" cy="295.385" r="29.538"/>
<path style="fill:#FF5A5A;" d="M305.231,285.538h-256c-16.314,0-29.538-13.224-29.538-29.538l0,0
	c0-16.314,13.224-29.538,29.538-29.538h256c16.314,0,29.538,13.224,29.538,29.538l0,0
	C334.769,272.314,321.545,285.538,305.231,285.538z"/>
<g>
	<path style="fill:#FF9D33;" d="M234.995,403.692H119.466c-55.104,0-99.774-44.67-99.774-99.774l0,0
		c0-10.151,8.228-18.38,18.38-18.38H316.39c10.15,0,18.38,8.228,18.38,18.38l0,0C334.769,359.022,290.099,403.692,234.995,403.692z"
		/>
	<path style="fill:#FF9D33;" d="M316.389,226.462H38.072c-10.151,0-18.38-8.228-18.38-18.38l0,0
		c0-55.104,44.67-99.774,99.774-99.774h115.528c55.105,0,99.775,44.67,99.775,99.774l0,0
		C334.769,218.233,326.541,226.462,316.389,226.462z"/>
</g>
<g>
	<path style="fill:#FFE088;" d="M305.231,137.223V88.615h-39.385v24.561C280.847,118.05,294.288,126.376,305.231,137.223z"/>
	<path style="fill:#FFE088;" d="M364.308,226.462c7.004,0,13.661-1.472,19.692-4.108V49.231h-39.385v173.118
		C350.646,224.987,357.303,226.462,364.308,226.462z"/>
	<path style="fill:#FFE088;" d="M314.416,147.692h0.661v0.87c-0.086-0.116-0.174-0.229-0.262-0.345
		c12.528,16.675,19.954,37.402,19.954,59.864l0,0c0,3.091-0.771,5.999-2.12,8.555c0.211-0.4,0.409-0.807,0.59-1.224
		c3.436,2.799,7.262,5.136,11.376,6.935V68.923h-39.385v68.3c3.359,3.329,6.479,6.896,9.339,10.672
		C314.519,147.828,314.467,147.76,314.416,147.692z"/>
	<path style="fill:#FFE088;" d="M413.538,177.231v-29.538h9.846V68.923H384v153.431
		C401.384,214.755,413.538,197.416,413.538,177.231z"/>
	<rect x="423.385" y="88.615" style="fill:#FFE088;" width="39.385" height="59.077"/>
</g>
<path d="M502.154,393.846h-18.906l18.877-245.399c0.211-2.734-0.73-5.433-2.593-7.446c-1.864-2.012-4.482-3.156-7.224-3.156h-19.692
	V88.615c0-5.438-4.409-9.846-9.846-9.846h-29.538v-9.846c0-5.438-4.409-9.846-9.846-9.846h-29.538v-9.846
	c0-5.438-4.409-9.846-9.846-9.846h-39.385c-5.437,0-9.846,4.408-9.846,9.846v9.846h-29.538c-5.437,0-9.846,4.408-9.846,9.846v9.846
	h-29.538c-5.437,0-9.846,4.408-9.846,9.846v11.873c-6.801-1.325-13.822-2.027-21.005-2.027H119.466
	c-60.446,0-109.62,49.176-109.62,109.62c0,8.669,3.932,16.433,10.101,21.615C13.672,236.676,9.846,245.899,9.846,256
	s3.826,19.324,10.101,26.303c-6.17,5.182-10.101,12.947-10.101,21.615c0,7.826,0.831,15.46,2.398,22.825
	c0.028,0.149,0.062,0.295,0.096,0.441c5.955,27.445,22.217,51.089,44.516,66.661H9.846c-5.437,0-9.846,4.408-9.846,9.846v14.112
	c0,30.223,24.588,54.811,54.811,54.811h402.379c30.223,0,54.811-24.588,54.811-54.811v-14.112
	C512,398.254,507.591,393.846,502.154,393.846z M463.497,393.846H297.653c8.25-5.751,15.735-12.642,22.176-20.504
	c4.266-5.207,8.003-10.789,11.215-16.643c0.427-0.775,0.846-1.555,1.254-2.34c0.207-0.4,0.414-0.799,0.615-1.2
	c0.602-1.19,1.182-2.394,1.74-3.609c0.019-0.04,0.037-0.08,0.056-0.119c3.143-6.859,5.596-14.096,7.275-21.622
	c6.349,4.384,14.039,6.961,22.322,6.961c21.717,0,39.385-17.668,39.385-39.385s-17.668-39.385-39.385-39.385
	c-7.33,0-14.195,2.019-20.079,5.522c0.041-0.29,0.069-0.585,0.103-0.876c0.03-0.252,0.064-0.502,0.09-0.756
	c0.042-0.425,0.07-0.856,0.098-1.285c0.014-0.217,0.035-0.431,0.046-0.649c0.032-0.648,0.049-1.3,0.049-1.955
	c0-0.656-0.018-1.308-0.049-1.955c-0.011-0.217-0.032-0.43-0.046-0.646c-0.029-0.43-0.056-0.861-0.098-1.287
	c-0.026-0.254-0.06-0.506-0.09-0.759c-0.045-0.383-0.09-0.766-0.146-1.146c-0.039-0.269-0.089-0.535-0.133-0.801
	c-0.061-0.359-0.122-0.719-0.192-1.075c-0.054-0.273-0.115-0.543-0.174-0.813c-0.076-0.346-0.154-0.691-0.239-1.033
	c-0.068-0.273-0.141-0.543-0.215-0.813c-0.092-0.335-0.185-0.669-0.285-1c-0.081-0.27-0.165-0.537-0.252-0.804
	c-0.106-0.328-0.217-0.654-0.332-0.978c-0.094-0.263-0.188-0.526-0.287-0.786c-0.122-0.322-0.248-0.641-0.378-0.958
	c-0.104-0.256-0.21-0.512-0.32-0.766c-0.138-0.316-0.281-0.629-0.426-0.941c-0.115-0.248-0.229-0.495-0.35-0.74
	c-0.155-0.314-0.316-0.624-0.479-0.933c-0.123-0.234-0.243-0.47-0.371-0.702c-0.176-0.32-0.361-0.634-0.546-0.949
	c-0.125-0.213-0.247-0.428-0.376-0.639c-0.211-0.344-0.431-0.679-0.652-1.015c-0.114-0.174-0.224-0.352-0.342-0.525
	c-0.3-0.442-0.612-0.876-0.929-1.306c-0.045-0.061-0.088-0.125-0.133-0.185c-0.367-0.491-0.747-0.973-1.136-1.445
	c-0.101-0.123-0.209-0.241-0.311-0.362c-0.263-0.312-0.525-0.625-0.798-0.928c0.342-0.288,0.677-0.583,1.005-0.886
	c0.071,0.039,0.144,0.076,0.215,0.115c0.275,0.152,0.553,0.297,0.831,0.445c0.381,0.202,0.764,0.401,1.149,0.595
	c0.326,0.164,0.651,0.328,0.98,0.486c0.329,0.158,0.661,0.308,0.992,0.46c0.324,0.149,0.643,0.306,0.969,0.449l0,0l0,0
	c0.262,0.114,0.529,0.212,0.791,0.322c0.42,0.176,0.842,0.35,1.267,0.516c0.438,0.172,0.877,0.344,1.318,0.505
	c0.038,0.014,0.078,0.027,0.116,0.04c1.085,0.395,2.178,0.753,3.28,1.082c0.14,0.041,0.281,0.082,0.42,0.123
	c1.066,0.31,2.14,0.591,3.22,0.839c0.068,0.016,0.136,0.032,0.205,0.048c0.582,0.132,1.165,0.256,1.751,0.369
	c0.099,0.02,0.2,0.035,0.299,0.054c0.945,0.178,1.895,0.335,2.85,0.467c0.406,0.056,0.812,0.109,1.219,0.158
	c0.385,0.045,0.769,0.094,1.156,0.131c0.781,0.077,1.564,0.135,2.348,0.18c0.249,0.014,0.499,0.026,0.749,0.036
	c0.881,0.04,1.764,0.067,2.649,0.067c2.997,0,5.961-0.227,8.881-0.669c0.034-0.005,0.071-0.009,0.106-0.014
	c0.786-0.12,1.567-0.268,2.346-0.42c0.195-0.038,0.393-0.067,0.587-0.106c0.647-0.133,1.288-0.291,1.93-0.447
	c0.326-0.079,0.656-0.147,0.979-0.231c0.543-0.141,1.08-0.304,1.619-0.461c0.418-0.121,0.84-0.235,1.254-0.365
	c0.478-0.151,0.95-0.32,1.426-0.483c0.466-0.16,0.933-0.314,1.393-0.485c0.465-0.173,0.926-0.363,1.387-0.548
	c0.448-0.18,0.898-0.355,1.341-0.545c0.127-0.054,0.257-0.1,0.384-0.157c12.318-5.384,22.136-14.649,28.288-25.987
	c0.012-0.022,0.023-0.043,0.034-0.065c0.407-0.751,0.797-1.512,1.17-2.28c0.061-0.124,0.122-0.248,0.182-0.373
	c0.385-0.806,0.758-1.619,1.107-2.443c0.025-0.057,0.045-0.116,0.07-0.173c0.299-0.714,0.583-1.436,0.854-2.162
	c0.114-0.304,0.223-0.61,0.332-0.917c0.179-0.506,0.352-1.015,0.518-1.527c0.107-0.331,0.218-0.66,0.319-0.993
	c0.227-0.747,0.444-1.5,0.642-2.257c0.087-0.33,0.161-0.665,0.242-0.996c0.124-0.508,0.243-1.017,0.354-1.529
	c0.08-0.369,0.156-0.74,0.227-1.113c0.106-0.545,0.203-1.094,0.294-1.644c0.05-0.303,0.106-0.605,0.152-0.909
	c0.123-0.822,0.227-1.649,0.316-2.479c0.03-0.276,0.051-0.554,0.077-0.831c0.06-0.645,0.109-1.291,0.148-1.94
	c0.017-0.276,0.033-0.55,0.046-0.827c0.041-0.896,0.069-1.795,0.069-2.698v-19.692h39.385h18.906L463.497,393.846z M49.231,275.692
	c-10.858,0-19.692-8.834-19.692-19.692c0-10.858,8.834-19.692,19.692-19.692h256c10.858,0,19.692,8.834,19.692,19.692
	c0,10.858-8.834,19.692-19.692,19.692H49.231z M344.615,295.385c0-10.858,8.834-19.692,19.692-19.692
	c10.858,0,19.692,8.834,19.692,19.692c0,10.858-8.834,19.692-19.692,19.692C353.449,315.077,344.615,306.243,344.615,295.385z
	 M452.923,98.462v39.385h-19.692V98.462H452.923z M413.538,78.769v9.846v49.231c-5.437,0-9.846,4.408-9.846,9.846v29.538
	c0,0.644-0.018,1.284-0.048,1.92c-0.013,0.254-0.035,0.505-0.052,0.758c-0.026,0.378-0.05,0.755-0.087,1.129
	c-0.031,0.314-0.071,0.625-0.108,0.937c-0.036,0.306-0.073,0.611-0.116,0.916c-0.05,0.343-0.107,0.682-0.166,1.023
	c-0.046,0.269-0.093,0.538-0.144,0.804c-0.069,0.354-0.144,0.708-0.223,1.059c-0.055,0.248-0.112,0.496-0.172,0.743
	c-0.087,0.357-0.178,0.712-0.275,1.065c-0.066,0.241-0.135,0.481-0.205,0.721c-0.102,0.348-0.207,0.695-0.318,1.039
	c-0.081,0.25-0.166,0.497-0.253,0.745c-0.112,0.324-0.225,0.648-0.346,0.969c-0.106,0.285-0.221,0.565-0.334,0.846
	c-0.111,0.276-0.22,0.552-0.337,0.826c-0.16,0.373-0.331,0.741-0.502,1.109c-0.082,0.174-0.158,0.351-0.241,0.524
	c-1.568,3.23-3.568,6.209-5.918,8.874V78.769H413.538z M354.462,59.077h19.692v9.846v146.446c-0.124,0.033-0.251,0.057-0.376,0.088
	c-0.595,0.148-1.192,0.284-1.795,0.403c-0.255,0.05-0.514,0.093-0.771,0.138c-0.517,0.092-1.036,0.175-1.558,0.246
	c-0.236,0.033-0.475,0.063-0.713,0.091c-0.598,0.07-1.197,0.126-1.798,0.168c-0.16,0.011-0.318,0.027-0.478,0.036
	c-1.576,0.093-3.16,0.093-4.737-0.001c-0.077-0.005-0.154-0.01-0.23-0.015c-2.448-0.16-4.878-0.542-7.238-1.153V68.923
	L354.462,59.077L354.462,59.077z M315.077,78.769h19.692v83.802c-2.84-6.2-6.276-12.158-10.291-17.816
	c-0.686-2.198-2.122-4.065-4.008-5.302c-1.719-2.139-3.521-4.217-5.393-6.22V88.615V78.769z M275.692,98.462h19.692v18.144
	c-6.202-4.098-12.81-7.567-19.692-10.327V98.462z M119.466,118.154h115.529c44.151,0,80.972,31.982,88.514,73.996
	c0.003,0.019,0.007,0.037,0.01,0.056c0.349,1.949,0.628,3.92,0.848,5.909c0.068,0.616,0.13,1.235,0.185,1.854
	c0.033,0.364,0.069,0.728,0.098,1.094c0.076,0.985,0.133,1.973,0.177,2.965c0.013,0.279,0.022,0.558,0.032,0.837
	c0.037,1.069,0.064,2.142,0.064,3.218c0,0.293-0.015,0.584-0.044,0.871c-0.01,0.101-0.032,0.199-0.045,0.299
	c-0.026,0.186-0.048,0.373-0.086,0.556c-0.011,0.052-0.029,0.102-0.04,0.155c-0.052,0.231-0.109,0.462-0.181,0.688
	c-0.003,0.01-0.007,0.019-0.01,0.029c-0.086,0.267-0.185,0.531-0.298,0.79c-0.001,0.001-0.001,0.003-0.002,0.004l0,0
	c-0.002,0.006-0.005,0.011-0.008,0.017c-0.154,0.351-0.334,0.683-0.529,1.005c-0.034,0.056-0.067,0.112-0.102,0.167
	c-0.202,0.316-0.42,0.618-0.659,0.903c-0.032,0.039-0.07,0.075-0.103,0.113c-0.212,0.243-0.437,0.471-0.673,0.687
	c-0.063,0.057-0.124,0.116-0.188,0.171c-0.274,0.236-0.558,0.457-0.859,0.656c-0.04,0.027-0.085,0.05-0.126,0.077
	c-0.274,0.175-0.558,0.333-0.851,0.476c-0.071,0.034-0.14,0.07-0.212,0.102c-0.337,0.153-0.681,0.288-1.037,0.397
	c-0.026,0.008-0.053,0.013-0.079,0.021c-0.328,0.096-0.663,0.168-1.003,0.225c-0.09,0.015-0.18,0.03-0.271,0.041
	c-0.37,0.049-0.744,0.083-1.123,0.083c-0.001,0-0.002,0-0.003,0h-11.159h-256H38.072c-4.705,0-8.534-3.828-8.534-8.534
	C29.538,158.496,69.88,118.154,119.466,118.154z M34.991,334.769h43.778c5.437,0,9.846-4.408,9.846-9.846
	c0-5.438-4.409-9.846-9.846-9.846H30.231c-0.455-3.657-0.692-7.381-0.692-11.159c0-4.705,3.828-8.534,8.534-8.534h11.159h256h11.159
	c3.529,0,6.564,2.153,7.862,5.215c0.432,1.02,0.672,2.142,0.672,3.318c0,1.23-0.031,2.455-0.082,3.676
	c-0.006,0.139-0.01,0.278-0.016,0.417c-0.058,1.253-0.139,2.502-0.248,3.744c-0.001,0.008-0.001,0.016-0.002,0.024
	c-2.523,28.481-18.611,53.82-42.231,68.56c-0.034,0.021-0.068,0.042-0.102,0.064c-0.986,0.613-1.986,1.204-2.997,1.78
	c-0.191,0.108-0.383,0.215-0.575,0.322c-0.922,0.515-1.851,1.017-2.792,1.502c-0.278,0.143-0.559,0.278-0.838,0.417
	c-0.685,0.344-1.376,0.676-2.072,1.002c-0.483,0.226-0.969,0.45-1.457,0.668c-0.676,0.302-1.358,0.595-2.043,0.881
	c-0.461,0.192-0.923,0.383-1.387,0.567c-0.786,0.312-1.578,0.613-2.375,0.904c-0.48,0.175-0.963,0.344-1.446,0.511
	c-0.71,0.245-1.424,0.481-2.142,0.709c-0.536,0.17-1.074,0.333-1.614,0.492c-0.694,0.205-1.391,0.404-2.092,0.593
	c-0.441,0.119-0.882,0.237-1.325,0.35c-0.901,0.227-1.808,0.441-2.719,0.641c-6.243,1.376-12.723,2.108-19.371,2.108H119.466
	C80.713,393.846,47.607,369.206,34.991,334.769z M492.308,417.805c0,19.364-15.754,35.118-35.118,35.118H54.811
	c-19.364,0-35.118-15.754-35.118-35.118v-4.266h99.774h115.529H256h216.615h19.692V417.805z"/>
<path d="M117.395,321.162c-0.246-0.601-0.551-1.172-0.906-1.703c-0.353-0.542-0.767-1.044-1.221-1.497
	c-0.453-0.453-0.955-0.866-1.497-1.221c-0.532-0.364-1.103-0.66-1.703-0.906c-0.591-0.246-1.21-0.443-1.84-0.561
	c-1.27-0.256-2.57-0.256-3.84,0c-0.63,0.118-1.25,0.315-1.841,0.561c-0.601,0.246-1.171,0.542-1.702,0.906
	c-0.543,0.354-1.045,0.768-1.498,1.221c-0.453,0.453-0.866,0.955-1.221,1.497c-0.364,0.532-0.66,1.103-0.906,1.703
	c-0.246,0.591-0.443,1.211-0.56,1.841c-0.129,0.63-0.197,1.28-0.197,1.92s0.068,1.29,0.197,1.92c0.117,0.63,0.314,1.25,0.56,1.841
	c0.246,0.601,0.542,1.172,0.906,1.703c0.354,0.542,0.768,1.044,1.221,1.497c1.831,1.831,4.372,2.885,6.961,2.885
	c0.639,0,1.29-0.069,1.92-0.197c0.63-0.118,1.25-0.315,1.84-0.561c0.601-0.246,1.172-0.551,1.703-0.906
	c0.542-0.354,1.044-0.768,1.497-1.221c0.454-0.453,0.867-0.955,1.221-1.497c0.354-0.532,0.66-1.103,0.906-1.703
	c0.246-0.591,0.443-1.211,0.561-1.841c0.128-0.63,0.197-1.28,0.197-1.92c0-0.64-0.069-1.29-0.197-1.92
	C117.839,322.373,117.641,321.753,117.395,321.162z"/>
<g>
</g>
<g>
</g>
<g>
</g>
<g>
</g>
<g>
</g>
<g>
</g>
<g>
</g>
<g>
</g>
<g>
</g>
<g>
</g>
<g>
</g>
<g>
</g>
<g>
</g>
<g>
</g>
<g>
</g>
</svg>
