<svg id="Layer_3" enable-background="new 0 0 64 64" height="512" viewBox="0 0 64 64" width="512" xmlns="http://www.w3.org/2000/svg"><g><path d="m17 54v2c0 1.105.895 2 2 2h28.099v-4z" fill="#758190"/><path d="m5 33c0 5.763 2.289 11.289 6.364 15.364l5.636 5.636h30l5.636-5.636c4.075-4.075 6.364-9.601 6.364-15.364z" fill="#a8b0bc"/><path d="m37.068 21.021-2.874-5.021h11.648z" fill="#f9d18b"/><path d="m17.391 25 1.644-1.644c.582-.582.582-1.524 0-2.106-.234-.234-.54-.384-.868-.425l-1.383-.376-.739-2.717c-.137-.607.046-1.242.486-1.682.44-.44 1.075-.624 1.682-.486l10.247 2.787-3.825 6.684z" fill="#fadfb2"/><path d="m27.911 19.31-5.946-5.954c-.582-.582-.582-1.524 0-2.106.234-.234.54-.384.868-.425l11.953-3.251c.32-.072.647-.056.95.041h.001l-3.423 5.982c-.096.124-.171.261-.224.406l-.09-.003c-.622 0-1.201.319-1.534.846z" fill="#f9d18b"/><path d="m15 9c-.622 0-1.201.319-1.534.846l-6.152 10.751c-.204.261-.314.583-.314.914 0 .822.667 1.489 1.489 1.489h13.022c.822 0 1.489-.667 1.489-1.489 0-.331-.11-.653-.314-.914l-6.152-10.751c-.333-.527-.912-.846-1.534-.846z" fill="#f2c351"/><path d="m5.484 25-1.44-5.292c-.137-.607.046-1.242.486-1.682.44-.44 1.075-.624 1.682-.486l11.953 3.251c.329.041.634.19.868.425.582.582.582 1.524 0 2.106l-1.644 1.644z" fill="#f9d18b"/><path d="m40 2c-.622 0-1.201.319-1.534.846l-6.153 10.751c-.203.261-.313.583-.313.914 0 .822.667 1.489 1.489 1.489h13.022c.822 0 1.489-.667 1.489-1.489 0-.331-.11-.653-.314-.914l-6.152-10.751c-.333-.527-.912-.846-1.534-.846z" fill="#f2c351"/><path d="m48 8c-.622 0-1.201.319-1.534.846l-6.153 10.751c-.203.261-.313.583-.313.914 0 .822.667 1.489 1.489 1.489h13.022c.822 0 1.489-.667 1.489-1.489 0-.331-.11-.653-.314-.914l-6.152-10.751c-.333-.527-.912-.846-1.534-.846z" fill="#e39854"/><path d="m50.139 25-4.173-4.173c-.582-.582-.582-1.524 0-2.106.234-.234.54-.384.868-.425l11.953-3.251c.607-.137 1.242.046 1.682.486.44.44.624 1.075.486 1.682l-2.141 7.87z" fill="#f7d881"/><path d="m32 14c-.622 0-1.201.319-1.534.846l-6.153 10.751c-.203.261-.313.583-.313.914 0 .822.667 1.489 1.489 1.489h13.022c.822 0 1.489-.667 1.489-1.489 0-.331-.11-.653-.314-.914l-6.153-10.751c-.332-.527-.911-.846-1.533-.846z" fill="#e39854"/><path d="m58 33h-52c-2.209 0-4-1.791-4-4 0-2.209 1.791-4 4-4h52c2.209 0 4 1.791 4 4 0 2.209-1.791 4-4 4z" fill="#758190"/><path d="m60 54h-16c-1.105 0-2-.895-2-2 0-1.105.895-2 2-2h16c1.105 0 2 .895 2 2 0 1.105-.895 2-2 2z" fill="#758190"/><path d="m44 54c0 3.102 1.628 5.977 4.287 7.572l.713.428h6l.713-.428c2.659-1.595 4.287-4.47 4.287-7.572" fill="#c1c8d1"/><path d="m58.234 50.002c.476-.531.766-1.233.766-2.002 0-1.315-.852-2.42-2.029-2.825.005-.059.029-.115.029-.175 0-1.657-2.239-3-5-3s-5 1.343-5 3c0 .06.024.116.029.175-1.177.405-2.029 1.51-2.029 2.825 0 .769.289 1.471.765 2.002" fill="#fadfb2"/><path d="m36.278 25.035-.432-.247c-.527-.332-.846-.911-.846-1.534 0-.622.319-1.201.846-1.534l10.751-6.153c.261-.203.583-.314.914-.314.822 0 1.489.667 1.489 1.489v.963l-2.166.589c-.329.041-.634.19-.868.425-.582.582-.582 1.524 0 2.106l4.173 4.175z" fill="#f2c351"/><path d="m2 29c0 2.209 1.791 4 4 4h35.444c.211-1.574.331-3.178.331-4.81 0-1.076-.056-2.138-.149-3.19h-35.626c-2.209 0-4 1.791-4 4z" fill="#8892a0"/><path d="m5 33c0 5.763 2.289 11.289 6.364 15.364l5.636 5.636h13.774c5.686-5.467 9.567-12.791 10.67-21z" fill="#c1c8d1"/><path d="m17 54v2c0 1.105.895 2 2 2h6.806c1.776-1.184 3.435-2.526 4.968-4z" fill="#8892a0"/></g></svg>