<svg id="icons" enable-background="new 0 0 64 64" height="512" viewBox="0 0 64 64" width="512" xmlns="http://www.w3.org/2000/svg"><path d="m36 46v16h-34c-.55 0-1-.449-1-1v-7c0-4.42 3.58-8 8-8h7l4 2 3-1 3 1 4-2z" fill="#ed5565"/><path d="m44.5 50h1.49.01c.561-.01 1-.449 1-1v-2h-2.51-2.49v2h-.01c0 .551.45 1 1 1zm5.5 2h3v-4c0-1.659-1.34-2.989-3-3zm9-12v22h-23v-16-6h7 4 7 4z" fill="#ffd2a6"/><path d="m47 47v2c0 .551-.439.99-1 1h-.01-1.49-1.51c-.55 0-1-.449-1-1h.01v-2h2.49z" fill="#f5f7fa"/><path d="m59 40h4v22h-4z" fill="#f7c292"/><path d="m53 48v4h-3v-7c1.66.011 3 1.341 3 3z" fill="#f5f7fa"/><path d="m40 22h-2-30-2s.551-.6 2-1.34c2.28-1.16 6.82-2.66 15-2.66s12.721 1.5 15 2.66c1.45.74 2 1.34 2 1.34z" fill="#656d78"/><path d="m38 22v5c0 5.75-3.24 10.75-8 13.271-2.09 1.099-4.47 1.729-7 1.729-2.529 0-4.91-.63-7-1.729-4.76-2.521-8-7.521-8-13.271v-5z" fill="#eac6bb"/><path d="m34.998 22v5c0 5.75-3.239 10.75-8 13.271-1.67.879-3.528 1.451-5.498 1.648.494.049.992.081 1.5.081 2.53 0 4.91-.63 7-1.729 4.76-2.521 8-7.521 8-13.271v-5z" fill="#d3b1a9"/><path d="m38 18v2.66c-2.279-1.16-6.82-2.66-15-2.66s-12.72 1.5-15 2.66v-2.66c0-8.289 6.71-15 15-15 8.28 0 15 6.711 15 15zm-12-7c0-1.66-1.35-3-3-3-1.66 0-3 1.34-3 3 0 1.65 1.34 3 3 3 1.65 0 3-1.35 3-3z" fill="#ed5565"/><path d="m23 3c-.507 0-1.008.027-1.502.076 7.577.752 13.5 7.142 13.5 14.924v1.482c1.271.387 2.26.8 3.002 1.178v-2.66c0-8.289-6.72-15-15-15z" fill="#da4453"/><path d="m30 40.271v5.729l-4 2-3-1-3 1-4-2v-5.729c2.09 1.099 4.471 1.729 7 1.729 2.53 0 4.91-.63 7-1.729z" fill="#ffce54"/><path d="m23 8c1.65 0 3 1.34 3 3 0 1.65-1.35 3-3 3-1.66 0-3-1.35-3-3 0-1.66 1.34-3 3-3z" fill="#ffce54"/><path d="m1 55.003c-.553 0-1-.447-1-1 0-4.964 4.038-9.002 9.002-9.002.553 0 1 .447 1 1s-.447 1-1 1c-3.861 0-7.002 3.141-7.002 7.002 0 .553-.447 1-1 1z"/><path d="m16 47.002-6.998-.001c-.553 0-1-.448-1-1 0-.553.448-1 1-1l6.998.001c.553 0 1 .448 1 1 0 .553-.448 1-1 1z"/><path d="m1.001 62c-.552 0-1-.447-1-1l-.001-6.997c0-.552.447-1 1-1 .552 0 1 .447 1 1l.001 6.997c0 .552-.447 1-1 1z"/><path d="m2.001 63c-1.103 0-2-.897-2-2 0-.553.447-1 1-1s1 .447 1 1v.002c.553 0 1 .446 1 .999 0 .552-.447.999-1 .999z"/><path d="m35.998 63h-33.997c-.553 0-1-.447-1-1s.447-1 1-1h33.997c.553 0 1 .447 1 1s-.447 1-1 1z"/><path d="m16 47.002c-.553 0-1-.447-1-1v-5.731c0-.553.447-1 1-1s1 .447 1 1v5.731c0 .553-.447 1-1 1z"/><path d="m30 47.001c-.553 0-1-.447-1-1v-5.73c0-.553.447-1 1-1s1 .447 1 1v5.73c0 .553-.447 1-1 1z"/><path d="m23 43.001c-8.822 0-16-7.178-16-16 0-.552.447-1 1-1s1 .448 1 1c0 7.72 6.28 14 14 14s14-6.28 14-14c0-.552.447-1 1-1s1 .448 1 1c0 8.822-7.178 16-16 16z"/><path d="m38 19c-.553 0-1-.448-1-1 0-7.72-6.28-14-14-14s-14 6.28-14 14c0 .552-.447 1-1 1s-1-.448-1-1c0-8.822 7.178-16 16-16s16 7.178 16 16c0 .552-.447 1-1 1z"/><path d="m8 28.001c-.553 0-1-.448-1-1v-5.001c0-.552.447-1 1-1s1 .448 1 1v5.001c0 .552-.447 1-1 1z"/><path d="m38 28.001c-.553 0-1-.448-1-1v-5.001c0-.552.447-1 1-1s1 .448 1 1v5.001c0 .552-.447 1-1 1z"/><path d="m40 23h-34c-.553 0-1-.448-1-1s.447-1 1-1h34c.553 0 1 .448 1 1s-.447 1-1 1z"/><path d="m40 23c-.272 0-.544-.111-.741-.329-.027-.026-3.655-3.671-16.259-3.671s-16.232 3.645-16.268 3.681c-.379.396-1.009.419-1.409.046s-.432-.993-.064-1.398c.16-.177 4.08-4.329 17.741-4.329s17.581 4.152 17.741 4.329c.371.409.34 1.042-.069 1.413-.192.173-.432.258-.672.258z"/><path d="m38 21.659c-.553 0-1-.448-1-1v-2.659c0-.552.447-1 1-1s1 .448 1 1v2.659c0 .552-.447 1-1 1z"/><path d="m8 21.659c-.553 0-1-.448-1-1v-2.659c0-.552.447-1 1-1s1 .448 1 1v2.659c0 .552-.447 1-1 1z"/><path d="m23 15c-2.206 0-4-1.794-4-4s1.794-4 4-4 4 1.794 4 4-1.794 4-4 4zm0-6c-1.103 0-2 .897-2 2s.897 2 2 2 2-.897 2-2-.897-2-2-2z"/><path d="m23 4c-.553 0-1-.448-1-1v-1c0-.552.447-1 1-1s1 .448 1 1v1c0 .552-.447 1-1 1z"/><path d="m19.999 48.999c-.15 0-.303-.034-.445-.105l-4-1.997c-.494-.246-.695-.847-.448-1.341.246-.495.85-.693 1.341-.448l4 1.997c.494.246.695.847.448 1.341-.175.351-.529.553-.896.553z"/><path d="m20 48.999c-.419 0-.81-.266-.949-.685-.174-.524.109-1.09.634-1.265l3-.997c.523-.172 1.09.11 1.265.634.174.524-.109 1.09-.634 1.265l-3 .997c-.105.034-.212.051-.316.051z"/><path d="m26.001 48.999c-.367 0-.721-.202-.896-.554-.247-.494-.046-1.095.448-1.341l4-1.997c.494-.245 1.095-.046 1.341.448.247.494.046 1.095-.448 1.341l-4 1.997c-.142.072-.296.106-.445.106z"/><path d="m26 48.999c-.104 0-.211-.017-.315-.051l-3-.997c-.524-.175-.808-.74-.634-1.265.175-.523.741-.806 1.265-.634l3 .997c.524.175.808.74.634 1.265-.14.419-.531.685-.95.685z"/><path d="m23.03 52.999c-.553 0-1.005-.447-1.005-1s.442-1 .994-1h.011c.552 0 1 .447 1 1s-.448 1-1 1z"/><path d="m58.998 63h-23c-.553 0-1-.447-1-1v-22c0-.553.447-1 1-1h23c.553 0 1 .447 1 1v22c0 .553-.447 1-1 1zm-22-2h21v-20h-21z"/><path d="m44.498 59.005c-.553 0-1-.447-1-1v-8c0-.553.447-1 1-1s1 .447 1 1v8c0 .553-.447 1-1 1z"/><path d="m42.994 51.003c-1.102 0-1.997-.896-1.997-1.997 0-.53.418-.913.947-.942.515-.03.992.414 1.053.94.552 0 .998.447.998.999 0 .553-.448 1-1.001 1z"/><path d="m45.997 51.005c-.553 0-1-.447-1-1s.447-1 1-1c0-.553.448-1.001 1.001-1.001s1.001.446 1.001.999c0 1.103-.898 2.002-2.002 2.002z"/><path d="m46 51.003h-3.006c-.553 0-1-.447-1-1s.447-1 1-1h3.006c.553 0 1 .447 1 1s-.447 1-1 1z"/><path d="m41.998 50.004c-.553 0-1-.447-1-1v-4.002c0-.553.447-1 1-1s1 .447 1 1v4.002c0 .553-.447 1-1 1z"/><path d="m46.999 50.004c-.553 0-1-.447-1-1v-4.002c0-.553.447-1 1-1s1 .447 1 1v4.002c0 .553-.447 1-1 1z"/><path d="m49.998 59.005c-.553 0-1-.447-1-1v-13.006c0-.553.447-1 1-1s1 .447 1 1v13.006c0 .553-.447 1-1 1z"/><path d="m52.998 49.005c-.553 0-1-.447-1-1 0-1.106-.899-2.006-2.006-2.006-.553 0-1-.447-1-1s.447-1 1-1c2.209 0 4.006 1.797 4.006 4.006 0 .553-.447 1-1 1z"/><path d="m52.998 52.999c-.553 0-1-.447-1-1v-3.994c0-.553.447-1 1-1s1 .447 1 1v3.994c0 .553-.447 1-1 1z"/><path d="m52.998 52.999h-3c-.553 0-1-.447-1-1s.447-1 1-1h3c.553 0 1 .447 1 1s-.447 1-1 1z"/><path d="m46.999 48.001h-5.001c-.553 0-1-.447-1-1s.447-1 1-1h5.001c.553 0 1 .447 1 1s-.447 1-1 1z"/><path d="m44.497 48c-.553 0-1-.447-1-1v-1.998c0-.553.447-1 1-1s1 .447 1 1v1.998c0 .553-.447 1-1 1z"/><path d="m63 63h-4.002c-.553 0-1-.447-1-1s.447-1 1-1h3.002v-20h-3.002c-.553 0-1-.447-1-1s.447-1 1-1h4.002c.553 0 1 .447 1 1v22c0 .553-.447 1-1 1z"/><path d="m54 36.502c-.553 0-1-.447-1-1 0-2.482-2.019-4.502-4.5-4.502s-4.5 2.02-4.5 4.502c0 .553-.447 1-1 1s-1-.447-1-1c0-3.585 2.916-6.502 6.5-6.502s6.5 2.917 6.5 6.501c0 .554-.447 1.001-1 1.001z"/><path d="m43 41c-.553 0-1-.447-1-1v-4.498c0-.553.447-1 1-1s1 .447 1 1v4.498c0 .553-.447 1-1 1z"/><path d="m54 41c-.553 0-1-.447-1-1v-4.498c0-.553.447-1 1-1s1 .447 1 1v4.498c0 .553-.447 1-1 1z"/><path d="m58.004 36.502c-.553 0-1-.447-1-1 0-2.482-2.019-4.501-4.5-4.501s-4.5 2.019-4.5 4.501c0 .553-.447 1-1 1s-1-.447-1-1c0-3.585 2.916-6.501 6.5-6.501s6.5 2.917 6.5 6.501c0 .553-.447 1-1 1z"/><path d="m47.004 41c-.553 0-1-.447-1-1v-4.498c0-.553.447-1 1-1s1 .447 1 1v4.498c0 .553-.447 1-1 1z"/><path d="m58.004 41c-.553 0-1-.447-1-1v-4.498c0-.553.447-1 1-1s1 .447 1 1v4.498c0 .553-.447 1-1 1z"/><path d="m35.998 47.001h-5.998c-.553 0-1-.447-1-1s.447-1 1-1h5.998c.553 0 1 .447 1 1s-.447 1-1 1z"/></svg>